<svg width="145" height="22" viewBox="0 0 145 22" fill="none" xmlns="http://www.w3.org/2000/svg">
<g clip-path="url(#clip0_4_1147)">
<path d="M6.24627 21.4429C6.15384 21.5372 6.03621 21.5972 5.91438 21.5972H0.22596C0.0159004 21.5972 -0.0765259 21.4429 0.0747171 21.2587L9.45178 10.3658L5.21698 0.338527C5.12455 0.12427 5.21698 0 5.39763 0H10.9054C11.0566 0 11.1785 0.0942735 11.2373 0.214258L13.5647 6.17063L18.1651 0.154266C18.2575 0.0599922 18.3751 0 18.497 0H24.2148C24.4248 0 24.5173 0.154266 24.366 0.338527L15.6527 10.6743L20.0682 21.2887C20.1606 21.5029 20.0388 21.5972 19.8581 21.5972H14.384C14.2327 21.5972 14.1109 21.5029 14.0521 21.3829L11.5398 14.7795L6.24627 21.4429Z" fill="#2D8546"/>
<path d="M6.24627 21.4429C6.15384 21.5372 6.03621 21.5972 5.91438 21.5972H0.22596C0.0159004 21.5972 -0.0765259 21.4429 0.0747171 21.2587L9.45178 10.3658L5.21698 0.338527C5.12455 0.12427 5.21698 0 5.39763 0H10.9054C11.0566 0 11.1785 0.0942735 11.2373 0.214258L13.5647 6.17063L18.1651 0.154266C18.2575 0.0599922 18.3751 0 18.497 0H24.2148C24.4248 0 24.5173 0.154266 24.366 0.338527L15.6527 10.6743L20.0682 21.2887C20.1606 21.5029 20.0388 21.5972 19.8581 21.5972H14.384C14.2327 21.5972 14.1109 21.5029 14.0521 21.3829L11.5398 14.7795L6.24627 21.4429Z" fill="url(#paint0_radial_4_1147)"/>
<path d="M34.5006 0H26.6948C26.5436 0 26.4217 0.0599922 26.3923 0.248539L24.2161 10.4944H17.6244C17.4732 10.4944 17.2421 10.5458 17.322 10.7429L18.6117 13.9525C18.6957 14.1453 18.8386 14.261 19.0234 14.261H23.3171L21.6114 21.2972C21.582 21.4815 21.6702 21.6058 21.855 21.6058H27.0603C27.2116 21.6058 28.8458 14.5095 28.8458 14.5095H32.4168C38.6472 14.5095 42.1888 11.1457 42.1888 6.39345C42.1888 2.66108 39.979 0.00428516 34.5048 0.00428516L34.5006 0ZM32.6563 10.4301H29.7533L31.2363 4.0409H33.8074C35.9837 4.0409 36.6811 5.21504 36.6811 6.72341C36.6811 8.82314 35.4711 10.4258 32.6563 10.4258V10.4301Z" fill="#222222"/>
<path d="M54.0432 5.95641C54.0726 5.77215 54.1944 5.70787 54.3457 5.70787H59.3073C59.4879 5.70787 59.5804 5.83214 59.5509 6.0164L57.7066 13.884L56.0724 21.353C56.043 21.5372 55.9211 21.6015 55.7699 21.6015H51.0519C50.8713 21.6015 50.8083 21.4773 50.8419 21.293L51.0519 20.3974C49.9638 21.323 48.6026 21.9101 46.9684 21.9101C43.4898 21.9101 41.2505 19.2275 41.2505 15.2466C41.2505 10.8972 43.8805 5.40363 49.2958 5.40363C51.3544 5.40363 52.8332 6.17495 53.7113 7.50335L54.0432 5.9607V5.95641ZM52.7744 12.037C52.7744 10.0316 51.9258 8.98173 50.4134 8.98173C47.5986 8.98173 46.7247 12.9926 46.7247 15.0281C46.7247 16.9093 47.4515 18.3277 49.0522 18.3277C51.7451 18.3277 52.7744 14.1625 52.7744 12.0328V12.037Z" fill="#222222"/>
<path d="M62.8456 21.3529C62.8162 21.5372 62.6944 21.6014 62.5431 21.6014H57.674C57.4933 21.6014 57.4009 21.4772 57.4303 21.2929L59.2452 13.7039L60.9089 5.96063C60.9383 5.77636 61.0601 5.71209 61.2114 5.71209H66.0511C66.2318 5.71209 66.3242 5.80636 66.2612 6.02062L65.6562 8.27461C67.2611 6.48341 69.2861 5.5921 71.374 5.5921C71.5547 5.5921 71.7353 5.6221 71.9202 5.65209C72.1009 5.68209 72.1639 5.83636 72.1303 5.99062L71.3446 9.50874C71.3152 9.693 71.1934 9.75728 71.0422 9.75728C70.8909 9.72728 70.7397 9.72728 70.6178 9.72728C67.6224 9.72728 64.9 11.7927 64.2026 15.3108L62.8414 21.3572L62.8456 21.3529Z" fill="#222222"/>
<path d="M83.8979 6.01635L83.1417 9.31593C83.1122 9.50019 82.9904 9.56446 82.8392 9.56446H79.39L77.907 16.2922C77.6045 17.6806 78.18 18.0191 79.0245 18.0191C79.7807 18.0191 80.3563 17.8648 80.8394 17.7405C81.0495 17.6806 81.1713 17.8005 81.1125 18.0191L80.4487 20.9801C80.4193 21.1044 80.3269 21.2287 80.1756 21.2587C79.0875 21.6615 77.9364 21.9357 76.8189 21.9357C73.8234 21.9357 71.5254 20.4231 72.4034 16.5664L74.0083 9.56018H72.2858C72.1051 9.56018 72.0127 9.43591 72.0421 9.25165L72.7983 5.95208C72.8277 5.76782 72.9496 5.70354 73.1008 5.70354H74.8863L75.7013 1.97116C75.7307 1.7869 75.8526 1.72263 76.0038 1.72263H80.936C81.1167 1.72263 81.2091 1.8469 81.1797 2.03116L80.3016 5.70354H83.6584C83.8391 5.70354 83.9315 5.82781 83.9021 6.01207L83.8979 6.01635Z" fill="#222222"/>
<path d="M87.1336 21.353C87.1042 21.5372 86.9824 21.6015 86.8311 21.6015H81.8107C81.63 21.6015 81.5376 21.4772 81.567 21.293L83.3525 13.7639L85.1086 5.95639C85.138 5.77213 85.2599 5.70785 85.4111 5.70785H90.0997C90.2803 5.70785 90.3727 5.83212 90.3433 6.01638L89.982 7.49904C91.192 6.26492 92.9145 5.33932 94.9142 5.33932C98.1197 5.33932 100.359 7.62331 99.3927 11.8185L98.6953 14.8438L97.3047 21.353C97.2753 21.5372 97.1535 21.6015 97.0022 21.6015H92.0406C91.86 21.6015 91.7675 21.4772 91.7969 21.293L93.2169 15.4909L93.9438 12.127C94.2756 10.4601 93.8219 9.35023 92.4019 9.35023C90.1627 9.35023 89.0452 12.3113 88.6208 14.2567L88.3478 15.5851L87.1378 21.353H87.1336Z" fill="#222222"/>
<path d="M115.961 14.8095H105.281V14.9938C105.281 17.3378 106.311 18.3576 107.882 18.3576C109.273 18.3576 110.18 17.5563 110.604 16.3822C110.634 16.2279 110.756 16.1679 110.907 16.1679H115.536C115.717 16.1679 115.81 16.2922 115.78 16.4764C114.932 19.746 112.092 22 107.764 22C103.437 22 99.9585 19.4375 99.9585 14.7195C99.9585 10.0016 103.408 5.30933 109.155 5.30933C114.511 5.30933 117.414 9.32023 116.263 14.5653C116.234 14.7195 116.112 14.8138 115.961 14.8138V14.8095ZM105.706 11.5999H111.15C111.272 10.0573 110.487 8.88315 108.823 8.88315C107.252 8.88315 106.222 9.90301 105.706 11.5999Z" fill="#222222"/>
<path d="M121.133 21.3529C121.103 21.5372 120.981 21.6014 120.83 21.6014H115.961C115.78 21.6014 115.688 21.4772 115.717 21.2929L117.532 13.7039L119.196 5.96063C119.225 5.77636 119.347 5.71209 119.498 5.71209H124.338C124.519 5.71209 124.611 5.80636 124.548 6.02062L123.943 8.27461C125.548 6.48341 127.573 5.5921 129.661 5.5921C129.842 5.5921 130.022 5.6221 130.207 5.65209C130.388 5.68209 130.451 5.83636 130.417 5.99062L129.632 9.50874C129.602 9.693 129.48 9.75728 129.329 9.75728C129.178 9.72728 129.027 9.72728 128.905 9.72728C125.909 9.72728 123.187 11.7927 122.494 15.3108L121.133 21.3572V21.3529Z" fill="#222222"/>
<path d="M128.603 16.5707C128.603 16.3864 128.725 16.2922 128.876 16.2922H133.594C133.745 16.2922 133.867 16.3864 133.867 16.5707C133.959 17.8991 134.867 18.5762 136.619 18.5762C138.223 18.5762 138.765 17.9291 138.765 17.2478C138.765 14.8395 130.325 16.2622 130.325 10.6143C130.325 7.49902 133.169 5.30502 137.736 5.30502C142.303 5.30502 144.815 7.43475 144.996 10.3958C144.996 10.5801 144.903 10.6743 144.723 10.6743H140.244C140.093 10.6743 139.971 10.5801 139.942 10.3958C139.82 9.28593 139.064 8.60459 137.703 8.60459C136.341 8.60459 135.766 9.19166 135.766 9.93299C135.766 12.4312 144.147 11.0129 144.147 16.2879C144.147 19.4975 141.274 21.9957 136.522 21.9957C131.439 21.9957 128.687 19.6217 128.594 16.5664L128.603 16.5707Z" fill="#222222"/>
</g>
<defs>
<radialGradient id="paint0_radial_4_1147" cx="0" cy="0" r="1" gradientUnits="userSpaceOnUse" gradientTransform="translate(12.2204 21.5972) rotate(-90) scale(21.5972 24.4407)">
<stop stop-color="#96BB68"/>
<stop offset="1" stop-color="#4FB06B" stop-opacity="0"/>
</radialGradient>
<clipPath id="clip0_4_1147">
<rect width="145" height="22" fill="white"/>
</clipPath>
</defs>
</svg>
